<svg width="580" height="482" viewBox="0 0 580 482" fill="none" xmlns="http://www.w3.org/2000/svg"><path fill-rule="evenodd" clip-rule="evenodd" d="M47.331 47.12h10.757V187H47.331V47.12zM23.665 23.56h10.758V187H23.665V23.56zM0 0h10.757v187H0V0z" fill="#E5DDF5"/><path d="M235 10.71V0H0v10.71h235zM235 34.626V23.56H23.666v11.066H235zM235 58.187V47.12H47.331v11.067H235z" fill="#E5DDF5"/><path d="M78.5 79.5h447v349h-447v-349z" stroke="#6C6C6C"/><g filter="url(#filter0_d)"><path d="M107 107a4 4 0 014-4h440a4 4 0 014 4v342a4 4 0 01-4 4H111a4 4 0 01-4-4V107z" fill="#fff"/></g><circle cx="137.5" cy="122.5" r="3.5" fill="#C4C4C4"/><circle cx="149.5" cy="122.5" r="3.5" fill="#C4C4C4"/><circle cx="161.5" cy="122.5" r="3.5" fill="#C4C4C4"/><path d="M520.223 159.76a12.225 12.225 0 00-11.858-.537l-16.52 8.257-14.595-14.588v-19.33c0-6.727-5.46-12.187-12.188-12.187h-24.375c-4.875 0-9.28 2.907-11.2 7.386l-35.014 81.692-53.223 31.932-37.806-9.452-22.059-55.154a12.21 12.21 0 00-11.323-7.654H233.5c-3.23 0-6.331 1.286-8.617 3.571l-46.714 46.715-33.839 11.279a12.186 12.186 0 00-8.33 11.56v36.562a12.19 12.19 0 006.734 10.902l17.641 8.818v29.03c0 3.23 1.286 6.332 3.571 8.617l48.75 48.75a12.192 12.192 0 008.616 3.571h65.594l21.005 42.016a12.189 12.189 0 0010.901 6.734h73.125c1.896 0 3.76-.439 5.454-1.286l73.125-36.562a12.19 12.19 0 006.734-10.902v-73.125c0-3.23-1.286-6.331-3.571-8.617l-20.804-20.804v-11.797l66.391-33.193A12.19 12.19 0 00526 231.062v-60.937c0-4.223-2.188-8.147-5.777-10.365zm-18.598 63.771l-66.391 33.192a12.19 12.19 0 00-6.734 10.902V292c0 3.23 1.286 6.331 3.571 8.617l20.804 20.804v60.547l-63.814 31.907h-62.717l-21.005-42.016a12.19 12.19 0 00-10.902-6.734h-68.079l-41.608-41.608V292a12.19 12.19 0 00-6.734-10.902l-17.641-8.817v-20.244l28.232-9.409a12.26 12.26 0 004.76-2.943l45.179-45.185h23.259l21.31 53.278a12.2 12.2 0 008.361 7.294l48.75 12.187c3.138.78 6.465.293 9.232-1.377l60.937-36.562a12.183 12.183 0 004.93-5.649l33.394-77.921h4.156v12.188c0 3.229 1.286 6.331 3.571 8.616l24.375 24.375a12.2 12.2 0 0014.07 2.285l6.734-3.37v33.687z" fill="#F7F7F7"/><path d="M192.437 205.347c.226-.227.537-.359.867-.359h29.9c.547 0 .82.661.434 1.048l-5.907 5.922a1.226 1.226 0 01-.867.358h-29.9a.614.614 0 01-.433-1.048l5.906-5.921z" fill="url(#paint0_linear)"/><path d="M192.437 183.238a1.26 1.26 0 01.867-.358h29.9c.547 0 .82.661.434 1.048l-5.907 5.921a1.223 1.223 0 01-.867.359h-29.9a.614.614 0 01-.434-1.048l5.907-5.922z" fill="url(#paint1_linear)"/><path d="M217.731 194.222a1.223 1.223 0 00-.867-.359h-29.9a.614.614 0 00-.433 1.048l5.906 5.922c.226.226.537.358.867.358h29.9c.547 0 .82-.661.434-1.048l-5.907-5.921z" fill="url(#paint2_linear)"/><path d="M277.409 185.085c8.041-.002 16.083-.002 24.125 0 .002 2.547.002 5.092 0 7.637-8.042.003-16.083.003-24.125 0a3240.21 3240.21 0 010-7.637z" fill="#02A6C2"/><path d="M267.91 195.596c2.594-.013 5.189-.013 7.784 0 .014 2.541.014 5.083 0 7.625-2.595.013-5.19.013-7.784.001a745.593 745.593 0 010-7.626zM277.415 195.596c5.804-.012 11.607-.012 17.411 0 .012 2.541.012 5.083 0 7.625-5.804.012-11.608.012-17.411 0a807.513 807.513 0 010-7.625z" fill="#5FCADE"/><path d="M277.422 206.108a372.49 372.49 0 017.768 0c.027 2.536.028 5.072.002 7.61-2.59.025-5.18.025-7.769-.001a371.143 371.143 0 01-.001-7.609z" fill="#ABEBF4"/><path d="M366.85 209.295a8.09 8.09 0 01-8.085-8.085c0-4.337 7.319-11.997 7.629-12.318l.383-.404.394.393c.321.321 7.763 7.982 7.763 12.319 0 4.472-3.623 8.095-8.084 8.095zm-.062-19.244a55.434 55.434 0 00-3.323 3.955c-2.371 3.126-3.623 5.61-3.623 7.194 0 3.861 3.146 7.008 7.008 7.008 3.861 0 7.008-3.147 7.008-7.008 0-1.584-1.273-4.068-3.685-7.194a57.578 57.578 0 00-3.385-3.955z" fill="url(#paint3_linear)"/><path d="M366.85 211.883c-5.891 0-10.673-4.793-10.673-10.673 0-5.755 8.033-13.788 8.375-14.119a.55.55 0 01.766 0 .55.55 0 010 .766c-.083.082-8.054 8.053-8.054 13.353 0 5.29 4.306 9.597 9.596 9.597s9.596-4.307 9.596-9.597c0-2.173-1.408-5.175-4.079-8.705-2.049-2.702-4.109-4.752-4.13-4.773a.532.532 0 010-.766.532.532 0 01.766 0c.352.342 8.53 8.478 8.53 14.244-.021 5.88-4.803 10.673-10.693 10.673z" fill="url(#paint4_linear)"/><path d="M366.85 214.471c-7.164 0-12.992-5.828-12.992-12.991 0-2.961 1.491-6.605 4.42-10.818 2.164-3.106 4.286-5.321 4.379-5.414a.54.54 0 01.766-.01.54.54 0 01.011.766c-.021.02-2.164 2.256-4.276 5.289-2.764 3.965-4.223 7.485-4.223 10.187 0 6.563 5.341 11.915 11.915 11.915 6.573 0 11.915-5.342 11.915-11.915 0-2.702-1.47-6.222-4.255-10.187-2.132-3.033-4.296-5.269-4.317-5.289a.54.54 0 01.011-.766.54.54 0 01.766.01c.362.373 8.871 9.213 8.871 16.232 0 7.163-5.828 12.991-12.991 12.991z" fill="url(#paint5_linear)"/><path d="M462.593 200.516c0 8.528-6.915 15.43-15.454 15.426-8.513-.004-15.41-6.926-15.404-15.462.005-8.498 6.937-15.403 15.455-15.396 8.501.009 15.403 6.923 15.403 15.432zm-7.859-8.195l-.029-.031-.098-.128-.042-.055-.575-.572-.021-.021c-.05-.05-.097-.104-.152-.149a6.409 6.409 0 00-1.358-.859c-.953-.455-1.969-.67-3.014-.768l.039-.011c-.003-.003-.007-.008-.01-.008l-.302-.004-.127-.008-.662-.009-.048.007a.426.426 0 00-.117-.023c-.242.017-.485.033-.726.062-.689.08-1.368.227-2.028.441a10.852 10.852 0 00-2.83 1.393 11.049 11.049 0 00-2.901 2.927 10.705 10.705 0 00-1.392 2.916c-.118.394-.186.803-.279 1.205-.031.132-.07.263-.09.396-.052.352-.119.703-.137 1.057-.027.515-.014 1.025.105 1.539.186.805.528 1.51 1.175 2.039.173.142.383.238.576.356l.065.08c.131.202.244.42.398.603.354.422.819.737 1.343.91.527.177 1.074.24 1.626.274.096.015.194.025.292.031a.554.554 0 01.414.18c.065.069.102.164.152.247.009.42-.256.68-.673.63-.466-.055-.932-.136-1.398-.206a6.934 6.934 0 01-1.934-.602c-1.187-.563-2.097-1.411-2.657-2.611-.091-.196-.16-.404-.244-.603a.252.252 0 00-.086-.1c-.009-.007-.06.028-.077.053-.163.245-.311.501-.485.737-.702.948-1.643 1.561-2.755 1.92-.132.043-.134.093-.088.199.117.265.223.535.344.799.435.954.957 1.859 1.592 2.694.704.927 1.486 1.777 2.393 2.512.633.513 1.293.986 1.997 1.393 1.135.654 2.333 1.169 3.61 1.465.755.175 1.521.34 2.291.406 1.061.09 2.129.093 3.193-.056.925-.13 1.833-.31 2.721-.61a14.36 14.36 0 003.06-1.424.316.316 0 00.161-.275c.062-.945.115-1.891.198-2.835.09-1.021.211-2.04.521-3.022.097-.306.231-.617.419-.873.32-.435.628-.873.879-1.351.559-1.069.917-2.191.956-3.406.026-.784-.052-1.552-.31-2.295-.228-.659-.474-1.313-.711-1.97l-.806-2.232c-.046-.129-.089-.138-.179-.036-.353.401-.791.527-1.302.398-.743-.187-1.291-1.107-.777-1.915.159-.251.384-.413.645-.537.098-.021.196-.041.294-.064.119-.028.1-.077.019-.134l-.031-.031-.031-.031.004-.004zm6.956 8.222l.04-.003c-.048-.618-.08-1.238-.149-1.854-.157-1.404-.547-2.749-1.117-4.038a14.653 14.653 0 00-6.483-6.939 14.588 14.588 0 00-3.822-1.387 14.7 14.7 0 00-6.948.241c-.905.258-1.784.601-2.626 1.023a14.54 14.54 0 00-4.89 4.042c-.987 1.277-1.763 2.666-2.266 4.2-.188.573-.332 1.162-.48 1.747-.226.885-.282 1.791-.313 2.697-.033.949.058 1.895.221 2.828.08.462.21.917.315 1.375.031.129.101.156.218.107.167-.07.338-.129.503-.204a4.334 4.334 0 001.653-1.279c.339-.431.615-.909.819-1.418.19-.472.375-.953.391-1.463.031-.998.235-1.963.513-2.912.256-.858.606-1.686 1.043-2.468a11.892 11.892 0 013.071-3.626 11.548 11.548 0 013.876-2.043c.771-.231 1.547-.409 2.354-.473 1.315-.104 2.606 0 3.873.37.792.23 1.554.531 2.257.973a7.588 7.588 0 012.207 2.11c.554.795.966 1.663 1.305 2.567.192.513.363 1.034.542 1.553.129.372.246.746.383 1.115.269.721.576 1.426.704 2.196a8.28 8.28 0 01-.087 3.087 8.669 8.669 0 01-.591 1.796c-.335.738-.731 1.441-1.262 2.057-.249.289-.384.633-.468.987-.127.532-.211 1.075-.295 1.616-.144.937-.184 1.884-.211 2.832 0 .036.025.072.038.108a.33.33 0 00.096-.037c.126-.099.249-.201.371-.306 1.247-1.076 2.334-2.29 3.178-3.711a14.444 14.444 0 001.57-3.734c.319-1.225.5-2.465.467-3.732z" fill="#050504"/><path d="M454.565 192.107l.041.055.099.128.028.031.031.031.031.031a.76.76 0 01-.104.093c-.067.04-.139.07-.209.105-.261.124-.486.286-.645.537-.515.808.034 1.728.777 1.915.511.128.95.003 1.302-.398.09-.102.133-.093.179.036.27.744.538 1.488.806 2.232.237.657.483 1.31.711 1.97.257.743.334 1.51.311 2.295-.04 1.215-.399 2.337-.957 3.406-.251.478-.56.916-.879 1.351a3.034 3.034 0 00-.419.873c-.31.982-.431 2.001-.521 3.022-.083.944-.136 1.89-.198 2.835-.009.124-.05.206-.161.275a14.338 14.338 0 01-3.06 1.424c-.887.298-1.796.48-2.721.61-1.064.15-2.132.146-3.193.056-.77-.066-1.536-.231-2.29-.406-1.278-.296-2.476-.811-3.611-1.466a15.41 15.41 0 01-1.997-1.392c-.908-.735-1.691-1.585-2.393-2.512a14.069 14.069 0 01-1.592-2.694c-.121-.264-.227-.534-.344-.799-.046-.105-.044-.155.088-.199 1.112-.359 2.053-.972 2.755-1.92.174-.236.322-.492.485-.737.017-.025.068-.06.077-.053.037.025.067.06.086.1.084.2.153.407.244.603.559 1.201 1.47 2.051 2.657 2.61a6.903 6.903 0 001.934.603c.466.07.93.15 1.398.206.417.05.684-.21.673-.63a.163.163 0 00.017-.057c-.037-.435-.182-.823-.487-1.144-.516-.533-1.182-.581-1.863-.582l-.031-.041c.006-.243.024-.486.014-.727a2.124 2.124 0 00-.084-.487c-.119-.429-.394-.756-.715-1.051-.361-.333-.717-.672-1.077-1.007-.04-.038-.086-.07-.13-.105l-.006-.056a1.444 1.444 0 00-.019-.197 30.982 30.982 0 00-.235-.895c-.062-.225-.141-.445-.212-.668v-.777a.224.224 0 00.036-.062c.063-.337.126-.674.186-1.012.009-.064.014-.128.016-.193l.015-.069.197-.617.017-.066.248-.64.05-.137.075-.171.049-.108c.014-.027.031-.053.044-.08l.205-.418.043-.08.054-.106.073-.132.14-.242.048-.067.205-.337.108-.156.046-.062.109-.155.022-.031.071-.094.05-.062.044-.058.053-.066.102-.124.024-.031.099-.128.021-.027.136-.154.083-.095c.049-.036.096-.075.141-.117a8.958 8.958 0 012.987-2.106c.311-.132.626-.261.95-.35.416-.111.837-.202 1.261-.271a7.645 7.645 0 011.012-.104c.47-.017.942-.007 1.413-.002.149-.001.298.011.446.036.628.114 1.251.253 1.85.48.556.211 1.087.466 1.569.826.168.124.342.241.515.361l.021.021.575.573zm-.955 5.591c-.04-.72-.149-1.536-.449-2.32-.218-.57-.516-1.084-.986-1.483-.341-.289-.729-.421-1.181-.339-.49.09-.836.391-1.13.765-.401.51-.638 1.096-.797 1.72-.292 1.153-.307 2.303.056 3.445.259.815.574 1.608.987 2.358.311.566.653 1.117.978 1.675.086.147.129.15.222.008.753-1.161 1.428-2.364 1.895-3.672.236-.663.405-1.339.405-2.158v.001zm-7.813-5.189c-.737-.055-1.336.648-1.325 1.256.011.703.587 1.298 1.292 1.302a1.312 1.312 0 001.322-1.269c.019-.702-.621-1.327-1.289-1.289z" fill="#FDFDFD"/><path d="M461.723 200.56c.034 1.267-.181 2.49-.5 3.714a14.43 14.43 0 01-1.57 3.734c-.844 1.421-1.93 2.635-3.178 3.711-.121.105-.245.207-.37.306a.35.35 0 01-.097.038c-.013-.037-.039-.073-.038-.109.027-.947.067-1.895.211-2.832.084-.541.168-1.084.295-1.616.084-.354.217-.698.468-.987.532-.616.927-1.318 1.263-2.057a8.706 8.706 0 00.59-1.796c.215-1.02.26-2.048.087-3.086-.128-.77-.435-1.475-.704-2.196-.137-.368-.254-.744-.382-1.115-.179-.518-.351-1.039-.543-1.554-.338-.904-.75-1.771-1.305-2.567a7.585 7.585 0 00-2.207-2.109c-.704-.442-1.465-.743-2.257-.974-1.267-.369-2.558-.473-3.873-.369-.806.064-1.583.241-2.354.472a11.584 11.584 0 00-3.876 2.043 11.918 11.918 0 00-3.071 3.626 12.311 12.311 0 00-1.046 2.47c-.277.948-.482 1.914-.512 2.911-.016.51-.201.991-.391 1.463-.204.51-.48.988-.819 1.42a4.33 4.33 0 01-1.654 1.279c-.164.074-.336.134-.503.204-.116.048-.186.021-.217-.107-.106-.459-.236-.913-.316-1.376a13.755 13.755 0 01-.22-2.828c.031-.905.088-1.811.313-2.695.148-.586.292-1.174.48-1.748.503-1.533 1.279-2.922 2.266-4.199a14.546 14.546 0 014.89-4.042 15.103 15.103 0 012.628-1.026 14.71 14.71 0 016.947-.241c1.332.282 2.619.749 3.822 1.387a14.657 14.657 0 016.483 6.939c.57 1.29.96 2.634 1.117 4.038.069.616.101 1.236.149 1.854-.012.001.008.02-.006.02z" fill="#FCFCFC"/><path d="M441.011 193.785l-.047.062-.107.156-.203.337-.05.067-.139.241a8.667 8.667 0 00-.073.132l-.054.106-.043.08-.205.418-.045.079-.048.109-.076.171-.049.136-.249.64-.016.067c-.066.205-.132.411-.196.617l-.016.069c-.026.083-.062.164-.076.249-.058.339-.108.679-.161 1.018v.777c.015.1.022.202.047.299.117.462.239.923.359 1.384a.928.928 0 01-.117-.099c-.606-.671-1.159-1.374-1.384-2.277.092-.402.161-.811.28-1.205.313-1.037.783-2.02 1.392-2.916a11.02 11.02 0 015.731-4.32c.659-.213 1.337-.36 2.024-.44.241-.028.484-.044.726-.062.04.002.079.01.117.023a1.237 1.237 0 01-.179.037 9.484 9.484 0 00-3.558.898 8.782 8.782 0 00-2.272 1.579c-.177.17-.334.361-.499.543l-.083.094-.136.154a.68.68 0 00-.021.028l-.099.128-.024.031-.102.124-.053.066-.044.058-.05.062-.071.094-.022.031-.109.155z" fill="#03ACEE"/><path d="M438.062 198.624c.224.901.776 1.606 1.383 2.277.037.036.076.068.117.098l.06.078.007.056a.325.325 0 00-.006.076c.068.543.023 1.084-.013 1.627-.027.393-.096.794.081 1.175-.193-.117-.404-.214-.576-.355-.646-.528-.988-1.234-1.175-2.039-.12-.513-.132-1.026-.106-1.539.019-.354.086-.706.138-1.057.02-.134.059-.264.09-.397z" fill="#02AD01"/><path d="M439.69 204.011c-.176-.381-.107-.782-.081-1.175.037-.543.082-1.084.014-1.627a.389.389 0 01.005-.076c.044.034.09.067.13.105.36.335.715.674 1.077 1.007.321.295.596.621.715 1.051.047.159.075.322.084.487.01.241-.008.484-.014.727-.134-.005-.268-.002-.4-.017a4.96 4.96 0 01-1.464-.401l-.066-.081z" fill="#FCFC03"/><path d="M441.651 204.551c.681 0 1.347.047 1.859.586.306.321.451.709.488 1.143a.163.163 0 01-.017.057c-.05-.083-.087-.177-.152-.247a.565.565 0 00-.415-.179 3.154 3.154 0 01-.291-.031c-.055-.026-.111-.05-.165-.076-.27-.124-.554-.226-.805-.381a1.018 1.018 0 01-.502-.872z" fill="#FC05F9"/><path d="M441.651 204.551c.011.38.189.678.502.87.251.156.535.256.805.381.054.026.11.05.165.075-.552-.034-1.1-.096-1.626-.273a2.966 2.966 0 01-1.343-.91c-.154-.183-.267-.401-.398-.603.465.208.959.343 1.464.401.133.015.267.012.4.017l.031.042z" fill="#F70403"/><path d="M441.825 192.76c.166-.182.322-.373.5-.543a8.782 8.782 0 012.272-1.579 9.446 9.446 0 013.558-.898c.061-.008.12-.021.179-.037l.048-.007.663.009.127.008.272.023c1.045.098 2.061.313 3.015.768.487.228.943.517 1.357.859.055.045.102.099.152.149-.171-.12-.347-.235-.515-.361-.479-.358-1.012-.614-1.569-.826-.599-.227-1.221-.366-1.849-.48a2.572 2.572 0 00-.446-.036c-.472-.005-.943-.015-1.413.002a7.8 7.8 0 00-1.012.104c-.425.069-.846.16-1.261.272-.325.089-.64.217-.95.349a8.983 8.983 0 00-2.988 2.106 1.587 1.587 0 01-.14.118zM454.565 192.107l-.576-.572.576.572zM454.482 192.583c.07-.035.142-.065.209-.105a.66.66 0 00.105-.093c.081.057.1.106-.019.134-.097.023-.195.043-.295.064z" fill="#FCFCFC"/><path d="M449.044 189.705l-.662-.009.662.009zM449.445 189.736l-.273-.023.301.004c.004 0 .007.006.011.008l-.039.011z" fill="#03ACEE"/><path d="M454.705 192.289l-.099-.129c.032.044.066.086.099.129zM454.766 192.352l-.032-.031.032.031zM454.796 192.384l-.031-.031.031.031zM454.734 192.322l-.029-.032.029.032z" fill="#FCFCFC"/><path d="M453.61 197.697c0 .819-.169 1.495-.404 2.156-.466 1.309-1.141 2.512-1.895 3.673-.093.142-.136.139-.222-.008-.326-.56-.666-1.109-.978-1.675a13.062 13.062 0 01-.987-2.358c-.363-1.142-.348-2.292-.055-3.446.158-.623.396-1.209.796-1.719.294-.373.64-.675 1.131-.765.451-.083.839.05 1.181.339.469.399.767.913.985 1.483.299.784.408 1.6.448 2.32z" fill="#020202"/><path d="M445.797 192.509c.668-.038 1.308.587 1.289 1.289a1.312 1.312 0 01-1.322 1.269c-.705-.004-1.281-.599-1.292-1.302-.01-.608.588-1.311 1.325-1.256z" fill="#050504"/><path d="M439.622 201.078l-.06-.078c-.12-.461-.242-.922-.359-1.384-.024-.097-.031-.199-.047-.299.072.223.149.444.212.668.085.297.16.596.235.896.012.065.018.131.019.197zM439.157 198.54c.053-.34.103-.68.16-1.019.015-.085.051-.166.077-.249-.002.065-.007.13-.015.194-.06.338-.123.675-.187 1.012a.2.2 0 01-.035.062zM439.623 196.52zM439.411 197.204zM441.606 193.008l.136-.154-.136.154zM441.011 193.785l.109-.155-.109.155zM440.857 194.003l.108-.156-.108.156zM441.486 193.164l.099-.128-.099.128zM441.36 193.32l.103-.125-.103.125zM439.921 195.743l.076-.171-.076.171zM440.392 194.779l.073-.131a8.582 8.582 0 00-.073.131zM441.142 193.6l.072-.095-.072.095zM440.604 194.408l.049-.068-.049.068zM440.295 194.968l.044-.082-.044.082zM440.045 195.465c.015-.027.032-.054.046-.081a3.326 3.326 0 00-.046.081zM441.263 193.445l.045-.06-.045.06z" fill="#FCFCFC"/><path d="M204.125 258.305l-13.559-6.56a5.056 5.056 0 01-2.65-3.142l-.097-.336.01.006 13.515 6.443a5.054 5.054 0 012.781 3.589z" fill="url(#paint6_linear)"/><path d="M201.818 269.311l-7.247-3.417a4.637 4.637 0 01-2.469-2.884l-.143-.488.05.023v.002l10.206 4.811a1.049 1.049 0 001.085-.121 1.037 1.037 0 00.381-1.022 4.579 4.579 0 00-2.524-3.25l-8.655-4.128a4.643 4.643 0 01-2.441-2.842 43.21 43.21 0 01-.162-.543l.038.018 11.626 5.544a7.472 7.472 0 014.111 5.292 2.737 2.737 0 01-3.856 3.005z" fill="url(#paint7_linear)"/><path d="M207.331 258.305l13.558-6.56a5.059 5.059 0 002.651-3.142l.097-.336-.01.006-13.515 6.443a5.054 5.054 0 00-2.781 3.589z" fill="url(#paint8_linear)"/><path d="M209.637 269.311l7.248-3.417a4.637 4.637 0 002.469-2.884l.143-.488-.05.023v.002l-10.206 4.811a1.049 1.049 0 01-1.085-.121 1.047 1.047 0 01-.382-1.022 4.593 4.593 0 012.525-3.25l8.655-4.128a4.643 4.643 0 002.441-2.842c.061-.201.117-.387.162-.543l-.039.018-11.625 5.544a7.472 7.472 0 00-4.111 5.292 2.737 2.737 0 003.855 3.005z" fill="url(#paint9_linear)"/><path d="M300.961 258.552c0 8.521-6.908 15.429-15.429 15.429-8.52 0-15.428-6.908-15.428-15.429s6.908-15.428 15.428-15.428c8.521 0 15.429 6.907 15.429 15.428z" fill="#4CD960"/><path d="M279.91 261.775a.131.131 0 00-.05-.034.154.154 0 00-.12-.001.143.143 0 00-.05.034l-2.557 2.555.165.785c.26 1.35 1.577 2.284 2.927 2.024l3.918-.752a.133.133 0 00.103-.093.126.126 0 00.003-.072.135.135 0 00-.035-.063l-4.304-4.383zm-.764-.586a.165.165 0 00.001-.232l-2.909-2.962c-.114-.116-.31-.013-.279.147l.945 4.918c.025.13.185.179.278.086l1.964-1.957zm4.596-4.86a.188.188 0 00.14.059.198.198 0 00.14-.057l4.577-4.56c.108-.108.012-.291-.138-.262l-7.672 1.474a.153.153 0 00-.118.106.156.156 0 00.037.155l3.034 3.085zm8.841.879l2.943 2.961c.097.097.261.011.235-.123l-.94-4.996a.136.136 0 00-.095-.107.133.133 0 00-.074-.003.142.142 0 00-.065.037l-2.003 1.978a.18.18 0 00-.001.253zm-3.969-4.053l3.149 3.221a.196.196 0 00.212.044.204.204 0 00.063-.042l2.548-2.521-.161-.957c-.259-1.35-1.532-2.242-2.882-1.983l-1.145.207-1.782 1.757a.193.193 0 00-.057.136.192.192 0 00.055.138zm-8.669 7.173l3.21-3.136a.217.217 0 00.049-.233.214.214 0 00-.046-.069l-3.579-3.64-1.949.34c-1.274.245-2.14 1.364-2.016 2.632l4.03 4.103c.039.04.093.063.15.064a.21.21 0 00.151-.061zm8.04.116l3.27-3.242a.14.14 0 00.001-.198l-3.258-3.306a.14.14 0 00-.2-.001l-3.251 3.252a.14.14 0 00-.001.197l3.24 3.297a.14.14 0 00.046.03.142.142 0 00.054.012.149.149 0 00.054-.011.137.137 0 00.045-.03zm-.003 1.347a.146.146 0 00-.111-.047.136.136 0 00-.06.011.18.18 0 00-.052.034l-3.258 3.251a.153.153 0 00-.046.111.156.156 0 00.045.111l.863.865 5.477-1.054a.17.17 0 00.076-.038.168.168 0 00.046-.071.16.16 0 00-.038-.159l-2.942-3.014zm8.122.136l-4.074-4.134a.185.185 0 00-.197-.04.182.182 0 00-.058.04L288.584 261a.18.18 0 000 .253l3.504 3.565 2.05-.394c1.211-.233 1.993-1.301 1.966-2.497zm-12.268-1.741a.91.91 0 00-.644 1.555.91.91 0 10.993-1.485.91.91 0 00-.349-.07zm-2.614-7.759l.757-.165a.193.193 0 00.106-.063.194.194 0 00.048-.114l-.011-.345c.02-.273.159-.553.336-.762.208-.245.451-.437.758-.499l1.831-.375c.413-.083 1.003.109 1.325.457.161.181.289.39.377.616a.163.163 0 00.179.101l.742-.136a.16.16 0 00.127-.191c-.044-.195-.178-.563-.586-1.086-.438-.589-1.536-.962-2.333-.801l-1.802.364c-.897.181-1.695.839-1.91 1.758-.12.367-.123.855-.115 1.108 0 .021.005.041.015.06a.147.147 0 00.039.047.126.126 0 00.056.026c.02.005.041.005.061 0z" fill="#fff"/><path d="M367.21 280c9.734 0 17.625-7.896 17.625-17.636 0-9.741-7.891-17.637-17.625-17.637s-17.625 7.896-17.625 17.637c0 9.74 7.891 17.636 17.625 17.636z" fill="url(#paint10_linear)"/><path fill-rule="evenodd" clip-rule="evenodd" d="M369.058 264.561l7.413 8.849a14.31 14.31 0 003.221-3.851l-9.991-5.761a3.109 3.109 0 01-.643.763z" fill="url(#paint11_linear)"/><path fill-rule="evenodd" clip-rule="evenodd" d="M367.207 265.235l.004 11.549c1.638 0 3.308-.284 4.935-.877l-3.945-10.847a2.816 2.816 0 01-.994.175z" fill="url(#paint12_linear)"/><path fill-rule="evenodd" clip-rule="evenodd" d="M369.908 261.367c.061.166.1.322.125.484l11.36-2.007a14.409 14.409 0 00-.643-2.426 14.394 14.394 0 00-1.066-2.273l-9.991 5.772c.085.139.155.285.215.45z" fill="url(#paint13_linear)"/><path fill-rule="evenodd" clip-rule="evenodd" d="M365.344 264.565l-7.424 8.847a14.517 14.517 0 004.336 2.497l3.954-10.84a3.262 3.262 0 01-.866-.504z" fill="url(#paint14_linear)"/><path fill-rule="evenodd" clip-rule="evenodd" d="M364.489 263.34c-.06-.165-.1-.322-.125-.483l-11.36 2.006c.144.818.353 1.628.644 2.427.29.798.65 1.554 1.065 2.273l9.991-5.772a2.47 2.47 0 01-.215-.451z" fill="url(#paint15_linear)"/><path fill-rule="evenodd" clip-rule="evenodd" d="M364.704 263.791l-9.991 5.773a14.213 14.213 0 003.222 3.841l7.424-8.845a2.823 2.823 0 01-.655-.769z" fill="url(#paint16_linear)"/><path fill-rule="evenodd" clip-rule="evenodd" d="M370.033 261.851c.055.339.059.678.007 1.004l11.368 2c.296-1.626.296-3.314.001-5.015l-11.376 2.011z" fill="url(#paint17_linear)"/><path fill-rule="evenodd" clip-rule="evenodd" d="M368.185 265.066l3.945 10.848a14.417 14.417 0 004.342-2.504l-7.414-8.849a2.925 2.925 0 01-.873.505z" fill="url(#paint18_linear)"/><path fill-rule="evenodd" clip-rule="evenodd" d="M369.701 263.798l9.99 5.76a14.547 14.547 0 001.718-4.703l-11.368-2a3.289 3.289 0 01-.34.943z" fill="url(#paint19_linear)"/><path fill-rule="evenodd" clip-rule="evenodd" d="M366.209 265.069l-3.953 10.841c1.571.57 3.232.87 4.941.878l-.005-11.548a3.113 3.113 0 01-.983-.171z" fill="url(#paint20_linear)"/><path fill-rule="evenodd" clip-rule="evenodd" d="M368.188 259.638l3.954-10.84a14.655 14.655 0 00-4.941-.879l.004 11.549c.324.001.671.062.983.17z" fill="url(#paint21_linear)"/><path fill-rule="evenodd" clip-rule="evenodd" d="M369.053 260.142l7.424-8.846a14.53 14.53 0 00-4.336-2.498l-3.953 10.841c.317.123.601.292.865.503z" fill="url(#paint22_linear)"/><path fill-rule="evenodd" clip-rule="evenodd" d="M367.205 259.467l-.004-11.549c-1.638 0-3.308.284-4.934.877l3.944 10.847c.331-.121.654-.17.994-.175z" fill="url(#paint23_linear)"/><path fill-rule="evenodd" clip-rule="evenodd" d="M364.357 261.852l-11.353-2.005a13.969 13.969 0 00-.001 5.015l11.361-2.006a3.163 3.163 0 01-.007-1.004z" fill="url(#paint24_linear)"/><path fill-rule="evenodd" clip-rule="evenodd" d="M369.693 260.916l9.991-5.772a14.215 14.215 0 00-3.222-3.842l-7.424 8.846c.264.211.479.474.655.768z" fill="url(#paint25_linear)"/><path fill-rule="evenodd" clip-rule="evenodd" d="M364.696 260.909l-9.975-5.766a14.564 14.564 0 00-1.718 4.703l11.369 2c.052-.326.16-.638.324-.937z" fill="url(#paint26_linear)"/><path fill-rule="evenodd" clip-rule="evenodd" d="M365.354 260.141l-7.428-8.844a14.347 14.347 0 00-3.221 3.852l9.991 5.761c.169-.284.395-.554.658-.769z" fill="url(#paint27_linear)"/><path fill-rule="evenodd" clip-rule="evenodd" d="M366.212 259.641l-3.944-10.847a14.387 14.387 0 00-4.343 2.503l7.414 8.85c.263-.215.542-.385.873-.506z" fill="url(#paint28_linear)"/><path d="M467 259.654c0-9.535-7.73-17.265-17.265-17.265s-17.265 7.73-17.265 17.265c0 9.536 7.73 17.265 17.265 17.265S467 269.19 467 259.654z" fill="url(#paint29_linear)"/><path fill-rule="evenodd" clip-rule="evenodd" d="M442.986 255.233l12.483-.062-2.988 4.508 7.053-.035-2.989 4.432-12.564.081 3.035-4.476-7.029-.003 2.999-4.445z" fill="#fff"/><path fill-rule="evenodd" clip-rule="evenodd" d="M193.739 316.29c-3.568 1.17-4.059 6.006-.789 7.787 1.496.817 3.699.672 4.877-.319l.492-.416-.354-.374c-.304-.318-.381-.339-.595-.152-1.878 1.642-5.023.519-5.439-1.933-.457-2.716 2.751-4.78 5.03-3.236.686.465.741.472 1.095.084.803-.887-2.571-2.016-4.317-1.441zm7.961.11c-2.862 1.047-3.638 4.753-1.455 6.935 2.833 2.834 7.572.873 7.524-3.11-.035-2.938-3.146-4.898-6.069-3.825zm7.773 3.901v4.184H210.568v-2.521h1.454c2.973 0 4.206-.991 4.019-3.215-.16-1.891-1.157-2.48-4.33-2.57l-2.245-.063v4.185h.007zm8.182.021v4.17h6.152l-.049-.429-.048-.43-2.48-.041-2.48-.042V320.807h4.17l.049-.513.048-.513H218.75V317.093h4.724v-.942h-5.819v4.171zm-12.637-2.778c2.273 1.163 2.037 5.064-.36 5.854-2.266.748-4.309-.554-4.441-2.834-.152-2.681 2.369-4.261 4.801-3.02zm8.979-.077c1.469.756 1.198 2.952-.423 3.402-.311.083-1.108.159-1.78.159h-1.22v-3.976l1.455.076c.922.048 1.642.173 1.968.339z" fill="#222"/><path d="M222.824 313.317h-30.608v.97h30.608v-.97z" fill="#222"/><path fill-rule="evenodd" clip-rule="evenodd" d="M223.384 302.24c-.436-.437-1.15-.458-1.669-.042-.326.256-.374.381-.333.873l.049.575h-6.97l-.042.45-.041.451h6.304l-.09.311c-.616 2.238-3.096 5.141-5.009 5.868-.083.035.007.222.215.437l.367.381.887-.464c2.016-1.06 3.928-3.596 4.642-6.145.215-.769.235-.797.623-.721 1.13.222 1.878-1.164 1.067-1.974zm-1.025 1.233c-.333-.208-.374-.624-.09-.832.305-.221.762-.013.762.354 0 .388-.388.658-.672.478zM194.314 304.477v.485h6.132v4.878h-6.27v.976h7.385V303.985h-7.247v.492z" fill="#222"/><path d="M212.099 306.722h-7.829v.679h7.829v-.679z" fill="#222"/><path d="M289.381 314.809a.146.146 0 010 .169v-.169zM289.237 319.843c0-2.559.012-3.597.024-2.33.024 1.28.024 3.38 0 4.647-.012 1.28-.024.242-.024-2.317zM273.043 315.679c0-1.92.024-2.692.036-1.714a85.07 85.07 0 010 3.5c-.012.941-.036.145-.036-1.786z" fill="#fff"/><path d="M273.99 320.145c-.24-.097-.48-.351-.624-.652-.239-.459-.251-.688-.251-3.983v-3.501l.455-.495.468-.482h1.138c.995 0 1.187.036 1.475.265.611.483.647.736.647 4.466 0 3.199-.024 3.464-.24 3.826a1.63 1.63 0 01-.647.568c-.515.217-1.918.217-2.421-.012z" fill="#8427CD"/><path d="M295.698 319.529c-.708-.35-.767-.664-.767-4.249 0-3.017.011-3.247.239-3.621.312-.519.887-.748 1.858-.748.935 0 1.487.205 1.798.676.228.326.24.579.24 3.729 0 3.694-.012 3.754-.695 4.165-.492.301-2.11.338-2.673.048z" fill="#B780E2"/><path d="M290.232 325.564c-.18-.097-.456-.338-.624-.543l-.311-.374v-4.78l.012-4.792.323-.483c.3-.422.408-.495.971-.579.36-.06.995-.073 1.415-.024.683.072.791.12 1.091.519l.323.422v9.837l-.287.314a2.548 2.548 0 01-.66.495c-.443.229-1.81.217-2.253-.012z" fill="#A25CD9"/><path d="M280.307 317.936c-.3-.012-.672-.097-.815-.169-.624-.326-.624-.338-.624-7.098 0-6.831-.012-6.759.672-7.121.419-.229 2.169-.241 2.589-.024.707.386.695.302.695 6.747v6.337c0 .712-.516 1.207-1.331 1.291a7.94 7.94 0 01-1.186.037z" fill="#8427CD"/><path d="M284.886 328.111c-.779-.495-.732.145-.744-11.274 0-7.495.036-10.489.132-10.682.372-.724.552-.809 1.714-.809 1.283 0 1.583.133 1.954.785l.276.483v10.139c0 9.378-.012 10.175-.204 10.646-.263.639-.827.917-1.954.941-.611.024-.863-.024-1.174-.229z" fill="#984AD5"/><path d="M369.935 331.488a2.067 2.067 0 100-4.134 2.067 2.067 0 000 4.134zM369.935 307.503a2.067 2.067 0 100-4.135 2.067 2.067 0 000 4.135zM369.935 313.157a1.655 1.655 0 100-3.31 1.655 1.655 0 000 3.31zM364.146 310.121a1.654 1.654 0 10.002-3.308 1.654 1.654 0 00-.002 3.308zM364.146 328.179a1.655 1.655 0 100-3.31 1.655 1.655 0 000 3.31zM375.105 316.26a1.655 1.655 0 100-3.31 1.655 1.655 0 000 3.31zM376.736 320.588a1.654 1.654 0 10-3.264-.531 1.654 1.654 0 003.264.531zM369.935 325.009a1.655 1.655 0 100-3.31 1.655 1.655 0 000 3.31zM369.935 318.739a1.309 1.309 0 100-2.618 1.309 1.309 0 000 2.618zM364.146 321.703a1.309 1.309 0 100-2.618 1.309 1.309 0 000 2.618zM364.146 315.91a1.309 1.309 0 100-2.618 1.309 1.309 0 000 2.618zM358.496 312.467a.965.965 0 100-1.93.965.965 0 000 1.93zM358.496 318.395a.965.965 0 100-1.93.965.965 0 000 1.93zM358.496 324.319a.965.965 0 100-1.93.965.965 0 000 1.93zM375.121 310.482a2.075 2.075 0 100-4.15 2.075 2.075 0 000 4.15zM375.105 328.524a2.067 2.067 0 100-4.134 2.067 2.067 0 000 4.134zM380.275 313.569a2.066 2.066 0 10.001-4.133 2.066 2.066 0 00-.001 4.133zM380.275 325.421a2.066 2.066 0 10.001-4.133 2.066 2.066 0 00-.001 4.133zM380.275 319.497a2.066 2.066 0 10.001-4.133 2.066 2.066 0 00-.001 4.133z" fill="#2470EE"/><path fill-rule="evenodd" clip-rule="evenodd" d="M442.5 310.875l-.143.145-3.431 6.955c-1.892 3.822-3.453 6.977-3.475 6.999-.035.043-.043.079-.043.261v.217l.137.138.136.138 6.891 3.488a877.324 877.324 0 016.912 3.518c.05.058.444.043.545-.029.043-.029 3.166-1.617 6.926-3.525l6.848-3.467.122-.137.122-.138v-.211c0-.188-.007-.217-.057-.29-.029-.043-1.598-3.198-3.482-7.013-3.538-7.187-3.431-6.977-3.639-7.151-.05-.043-.086-.051-.257-.051h-.194l-.107.095c-.058.05-.136.145-.179.203l-.072.108-.014 6.259a740.233 740.233 0 01-.029 6.288c-.007.015-.036.029-.057.029-.022 0-1.347-1.327-2.952-2.951-3.123-3.155-3.001-3.046-3.245-3.061-.25-.022-.05-.21-3.273 3.053-2.923 2.952-2.987 3.017-3.044 2.938a655.91 655.91 0 01-.029-6.303l-.014-6.273-.072-.102c-.036-.058-.115-.138-.172-.196l-.1-.094h-.416l-.143.16zm-.229 3.169c.014.036.021 1.936.021 5.28v5.222l-.05.051-.05.05h-2.579c-2.851 0-2.672.008-2.629-.138.022-.079 5.122-10.4 5.172-10.472.057-.066.086-.066.115.007zm15.035-.007c.065.072 5.186 10.458 5.186 10.523 0 .102.043.102-2.643.102-2.485 0-2.557 0-2.607-.044l-.05-.043v-5.251c0-5.679-.007-5.418.114-5.287zm-8.151 5.824c.007.029.014 2.451.014 5.396 0 5.7.007 5.446-.1 5.41-.108-.036-5.33-5.367-5.33-5.44 0-.065.244-.319 2.608-2.712 2.872-2.908 2.772-2.807 2.808-2.654zm3.939 2.632c1.827 1.85 2.651 2.698 2.651 2.727 0 .029-.029.087-.065.131-.107.145-5.215 5.294-5.265 5.309-.121.036-.114.341-.107-5.534.007-5.57 0-5.352.1-5.331.022.008 1.232 1.219 2.686 2.698zm-10.444 3.358c.101.065 3.869 3.895 3.904 3.967l.036.066-.086-.015c-.222-.036-7.908-3.967-7.858-4.025.058-.058 3.904-.058 4.004.007zm18.173-.007c.022.022.022.036.008.065-.022.037-7.608 3.888-7.794 3.96-.129.051-.15.007-.057-.109.208-.261 3.854-3.916 3.925-3.931.129-.036 3.883-.021 3.918.015z" fill="#8ACC32"/><path d="M200.562 368.378l10.44 5.182 10.441-5.182-20.881-10.364v10.364z" fill="url(#paint30_linear)"/><path d="M200.562 378.742v10.364l20.881-10.364-10.441-5.182-10.44 5.182z" fill="url(#paint31_linear)"/><path d="M221.442 378.742v-10.364l-10.44 5.182 10.44 5.182z" fill="#00B5EB"/><path d="M200.562 368.378v10.364l-10.44-5.182 10.44-5.182z" fill="#06F922"/><path fill-rule="evenodd" clip-rule="evenodd" d="M286.749 359.989c-.433.108-.568.216-4.277 3.918a964.051 964.051 0 00-4.414 4.378c-.379.378-1.137 1.108-1.678 1.675-.542.54-1.435 1.486-2.004 2.081-1.056 1.081-1.191 1.27-1.272 1.648-.082.513-.082 13.24 0 13.348.135.136 13.294.163 13.645 0 .244-.108 9.964-9.781 12.563-12.51l.434-.433c.514-.513.487.135.46-7.458-.027-6.16-.027-6.431-.136-6.539-.135-.135-12.806-.216-13.321-.108zm11.453 1.081c.136.081-.054.297-1.326 1.54-.759.757-2.004 1.973-2.762 2.756l-1.381 1.378h-5.496c-5.415 0-5.713 0-5.713-.189 0-.081 5.253-5.296 5.415-5.404.081-.027 1.462-.054 3.845-.081 2.057 0 4.467-.027 5.361-.054 1.516-.027 1.922-.027 2.057.054zm.921.919c.027.027.027 1.621.027 3.54v5.539c0 1.216 0 2.108-.027 2.162-.027.054-.596.621-1.246 1.27a82.75 82.75 0 00-1.76 1.81c-.974 1.027-2.409 2.378-2.518 2.378-.081 0-.162-10.241-.108-11.16 0-.081 2.139-2.27 3.168-3.269.271-.271.921-.892 1.435-1.406.921-.945.948-.972 1.029-.864zm-6.796 5.971c.108.163.108 10.917 0 11.133l-.054.108h-5.578c-5.009 0-5.577 0-5.604-.108-.027-.054-.027-2.594-.027-5.62v-5.513l.135-.054c.298-.135 11.047-.081 11.128.054zm-12.428.595c.028.108 0 10.052-.027 10.917 0 .108-5.685 6.106-5.767 6.079 0-.891 0-11.187.217-11.673.162-.351 5.226-5.458 5.442-5.458.081-.027.135.027.135.135zm11.941 11.835c.054.081-.109.27-.975 1.135-3.168 3.135-4.44 4.378-4.603 4.432-.189.081-11.019.108-11.128.054-.135-.108.082-.352 1.516-1.757.84-.81 2.031-1.999 2.681-2.648.65-.648 1.245-1.189 1.3-1.216.27-.135 11.127-.108 11.209 0z" fill="url(#paint32_linear)"/><path fill-rule="evenodd" clip-rule="evenodd" d="M383.98 365.735h-29.387v-3.592a2.937 2.937 0 012.939-2.939h23.51a2.937 2.937 0 012.938 2.939v3.592zm0 2.449v8.163H358.438c1.118 4.955 5.543 8.653 10.832 8.653 4.376 0 8.155-2.531 9.968-6.204h4.742v6.857a2.936 2.936 0 01-2.938 2.939h-23.51a2.937 2.937 0 01-2.939-2.939v-17.469h29.387zm-21.861 10.612h14.294a8.646 8.646 0 01-7.151 3.771 8.634 8.634 0 01-7.143-3.771zm-3.64-4.735h2.506a2.13 2.13 0 012.016-1.469c.939 0 1.747.62 2.016 1.469h2.507a4.575 4.575 0 00-4.523-3.918 4.567 4.567 0 00-4.522 3.918zm12.571 0h2.506a2.131 2.131 0 012.016-1.469c.939 0 1.747.62 2.017 1.469h2.506a4.575 4.575 0 00-4.523-3.918 4.567 4.567 0 00-4.522 3.918z" fill="#1C68F3"/><path d="M459.535 370.923h-2.282v-8.344c0-.819-.268-1.613-.761-2.25a3.405 3.405 0 00-1.945-1.25 3.289 3.289 0 00-2.264.308c-.699.37-1.255.98-1.575 1.728a3.718 3.718 0 00-.185 2.378 3.588 3.588 0 001.288 1.97 3.323 3.323 0 002.188.685 3.343 3.343 0 002.112-.906v5.681h-7.986c-.907 0-1.777.378-2.418 1.048-.64.671-1 1.58-1 2.528v8.345h-2.285a3.324 3.324 0 00-1.901.604 3.547 3.547 0 00-1.261 1.606 3.732 3.732 0 00-.194 2.068c.132.694.459 1.331.938 1.831.479.5 1.089.841 1.753.979a3.293 3.293 0 001.978-.205 3.46 3.46 0 001.536-1.318 3.7 3.7 0 00.576-1.989v-2.385h5.434c-.37.432-.634.952-.769 1.514a3.731 3.731 0 00-.006 1.714c.131.563.39 1.085.757 1.52.366.435.829.77 1.347.977a3.291 3.291 0 003.161-.394 3.534 3.534 0 001.089-1.282 3.707 3.707 0 00.393-1.664v-.13a3.585 3.585 0 00-1.028-2.464 3.28 3.28 0 00-2.394-.983h-7.984v-5.681a3.243 3.243 0 002.288.912c.66 0 1.307-.2 1.861-.575a3.536 3.536 0 001.262-1.542c.27-.63.359-1.328.257-2.01a3.65 3.65 0 00-.831-1.833h5.426v2.386c0 .47.088.935.26 1.369.172.434.425.828.743 1.16.317.332.695.595 1.11.774.415.18.86.272 1.31.272h.003c.453.006.903-.083 1.323-.26.42-.177.802-.44 1.124-.772.323-.333.578-.729.753-1.166a3.732 3.732 0 00-.001-2.758 3.59 3.59 0 00-.754-1.166 3.403 3.403 0 00-1.125-.771 3.293 3.293 0 00-1.323-.259h.002zm-14.828 15.5c0 .471-.134.932-.385 1.324a2.302 2.302 0 01-1.025.878c-.417.18-.875.227-1.318.135a2.254 2.254 0 01-1.168-.653 2.424 2.424 0 01-.624-1.221 2.483 2.483 0 01.13-1.378c.173-.436.465-.808.84-1.07a2.197 2.197 0 012.142-.22c.277.12.529.295.741.517a2.458 2.458 0 01.667 1.688zm6.846-.005c0-.633.241-1.239.669-1.686a2.235 2.235 0 011.614-.698c.605 0 1.185.252 1.613.699a2.44 2.44 0 01.668 1.686c0 .633-.24 1.239-.668 1.686a2.23 2.23 0 01-1.613.699 2.23 2.23 0 01-1.614-.697 2.44 2.44 0 01-.669-1.686v-.003zm-3.423-9.536c-.451 0-.892-.139-1.268-.401a2.363 2.363 0 01-.84-1.069 2.49 2.49 0 01-.131-1.377 2.42 2.42 0 01.624-1.221 2.254 2.254 0 011.168-.653 2.186 2.186 0 011.318.136 2.3 2.3 0 011.023.877c.251.392.385.853.385 1.325 0 .631-.24 1.237-.668 1.684a2.23 2.23 0 01-1.611.699zm7.978-14.302c0 .472-.134.933-.385 1.325a2.308 2.308 0 01-1.025.878c-.417.18-.877.227-1.319.134a2.245 2.245 0 01-1.168-.654 2.423 2.423 0 01-.624-1.222 2.492 2.492 0 01.132-1.378c.174-.436.467-.808.843-1.07a2.214 2.214 0 012.142-.217c.277.12.528.296.74.517.212.222.38.485.494.775.115.289.173.599.173.912h-.003zm5.707 11.921a2.469 2.469 0 01-.386 1.325 2.3 2.3 0 01-1.025.877 2.178 2.178 0 01-1.318.135 2.254 2.254 0 01-1.168-.653 2.423 2.423 0 01-.624-1.222 2.483 2.483 0 01.131-1.378c.173-.436.466-.808.841-1.07a2.197 2.197 0 012.142-.219 2.3 2.3 0 01.74.518 2.425 2.425 0 01.667 1.687z" fill="#343434"/><defs><linearGradient id="paint0_linear" x1="220.348" y1="179.342" x2="199.573" y2="219.035" gradientUnits="userSpaceOnUse"><stop stop-color="#00FFA3"/><stop offset="1" stop-color="#DC1FFF"/></linearGradient><linearGradient id="paint1_linear" x1="211.3" y1="174.607" x2="190.525" y2="214.299" gradientUnits="userSpaceOnUse"><stop stop-color="#00FFA3"/><stop offset="1" stop-color="#DC1FFF"/></linearGradient><linearGradient id="paint2_linear" x1="215.795" y1="176.959" x2="195.02" y2="216.652" gradientUnits="userSpaceOnUse"><stop stop-color="#00FFA3"/><stop offset="1" stop-color="#DC1FFF"/></linearGradient><linearGradient id="paint3_linear" x1="366.85" y1="209.294" x2="366.85" y2="188.487" gradientUnits="userSpaceOnUse"><stop stop-color="#05AAC5"/><stop offset="1" stop-color="#71E0EC"/></linearGradient><linearGradient id="paint4_linear" x1="366.86" y1="211.882" x2="366.86" y2="186.802" gradientUnits="userSpaceOnUse"><stop stop-color="#05AAC5"/><stop offset="1" stop-color="#71E0EC"/></linearGradient><linearGradient id="paint5_linear" x1="366.85" y1="214.47" x2="366.85" y2="185.082" gradientUnits="userSpaceOnUse"><stop stop-color="#05AAC5"/><stop offset="1" stop-color="#71E0EC"/></linearGradient><linearGradient id="paint6_linear" x1="190.264" y1="263.522" x2="201.68" y2="243.027" gradientUnits="userSpaceOnUse"><stop stop-color="#22C773"/><stop offset="1" stop-color="#29BAE2"/></linearGradient><linearGradient id="paint7_linear" x1="1023.87" y1="2078.17" x2="2108.8" y2="-103.908" gradientUnits="userSpaceOnUse"><stop stop-color="#22C773"/><stop offset="1" stop-color="#29BAE2"/></linearGradient><linearGradient id="paint8_linear" x1="2232.68" y1="1944.14" x2="2826.56" y2="213.14" gradientUnits="userSpaceOnUse"><stop stop-color="#22C773"/><stop offset="1" stop-color="#29BAE2"/></linearGradient><linearGradient id="paint9_linear" x1="2457.98" y1="2783.34" x2="3542.91" y2="601.265" gradientUnits="userSpaceOnUse"><stop stop-color="#22C773"/><stop offset="1" stop-color="#29BAE2"/></linearGradient><linearGradient id="paint10_linear" x1="367.209" y1="244.724" x2="367.209" y2="280.001" gradientUnits="userSpaceOnUse"><stop stop-color="#D8CEDC"/><stop offset="1" stop-color="#FEFEFE"/></linearGradient><linearGradient id="paint11_linear" x1="372.644" y1="269.025" x2="374.551" y2="266.856" gradientUnits="userSpaceOnUse"><stop stop-color="#3D1152"/><stop offset="1" stop-color="#74E0C1"/></linearGradient><linearGradient id="paint12_linear" x1="368.176" y1="271.394" x2="369.065" y2="271.234" gradientUnits="userSpaceOnUse"><stop stop-color="#3D1152"/><stop offset="1" stop-color="#74E0C1"/></linearGradient><linearGradient id="paint13_linear" x1="376.217" y1="259.387" x2="376.012" y2="258.637" gradientUnits="userSpaceOnUse"><stop stop-color="#3D1152"/><stop offset="1" stop-color="#3CB4E5"/></linearGradient><linearGradient id="paint14_linear" x1="361.182" y1="268.351" x2="364.771" y2="270.436" gradientUnits="userSpaceOnUse"><stop stop-color="#3D1152"/><stop offset="1" stop-color="#74E0C1"/></linearGradient><linearGradient id="paint15_linear" x1="357.507" y1="265.776" x2="357.685" y2="266.698" gradientUnits="userSpaceOnUse"><stop stop-color="#3D1152"/><stop offset="1" stop-color="#FCE200"/></linearGradient><linearGradient id="paint16_linear" x1="359.965" y1="267.041" x2="361.136" y2="268.542" gradientUnits="userSpaceOnUse"><stop stop-color="#3D1152"/><stop offset="1" stop-color="#74E0C1"/></linearGradient><linearGradient id="paint17_linear" x1="376.546" y1="262.704" x2="376.758" y2="260.611" gradientUnits="userSpaceOnUse"><stop stop-color="#3D1152"/><stop offset="1" stop-color="#3CB4E5"/></linearGradient><linearGradient id="paint18_linear" x1="371.24" y1="270.007" x2="372.103" y2="269.483" gradientUnits="userSpaceOnUse"><stop stop-color="#3D1152"/><stop offset="1" stop-color="#74E0C1"/></linearGradient><linearGradient id="paint19_linear" x1="374.599" y1="266.446" x2="376.187" y2="262.831" gradientUnits="userSpaceOnUse"><stop stop-color="#3D1152"/><stop offset="1" stop-color="#3CB4E5"/></linearGradient><linearGradient id="paint20_linear" x1="364.607" y1="270.468" x2="367.566" y2="270.817" gradientUnits="userSpaceOnUse"><stop stop-color="#3D1152"/><stop offset="1" stop-color="#74E0C1"/></linearGradient><linearGradient id="paint21_linear" x1="369.467" y1="253.881" x2="366.438" y2="253.059" gradientUnits="userSpaceOnUse"><stop stop-color="#3D1152"/><stop offset="1" stop-color="#3CB4E5"/></linearGradient><linearGradient id="paint22_linear" x1="372.711" y1="255.931" x2="369.596" y2="253.701" gradientUnits="userSpaceOnUse"><stop stop-color="#3D1152"/><stop offset="1" stop-color="#3CB4E5"/></linearGradient><linearGradient id="paint23_linear" x1="365.94" y1="252.771" x2="364.818" y2="252.857" gradientUnits="userSpaceOnUse"><stop stop-color="#3D1152"/><stop offset="1" stop-color="#FCE200"/></linearGradient><linearGradient id="paint24_linear" x1="357.848" y1="262.041" x2="357.692" y2="264.116" gradientUnits="userSpaceOnUse"><stop stop-color="#3D1152"/><stop offset="1" stop-color="#FCE200"/></linearGradient><linearGradient id="paint25_linear" x1="374.231" y1="257.398" x2="373.265" y2="255.997" gradientUnits="userSpaceOnUse"><stop stop-color="#3D1152"/><stop offset="1" stop-color="#3CB4E5"/></linearGradient><linearGradient id="paint26_linear" x1="359.948" y1="258.131" x2="358.272" y2="262.14" gradientUnits="userSpaceOnUse"><stop stop-color="#3D1152"/><stop offset="1" stop-color="#FCE200"/></linearGradient><linearGradient id="paint27_linear" x1="361.722" y1="255.799" x2="359.644" y2="257.857" gradientUnits="userSpaceOnUse"><stop stop-color="#3D1152"/><stop offset="1" stop-color="#FCE200"/></linearGradient><linearGradient id="paint28_linear" x1="362.529" y1="254.364" x2="361.709" y2="254.726" gradientUnits="userSpaceOnUse"><stop stop-color="#3D1152"/><stop offset="1" stop-color="#FCE200"/></linearGradient><linearGradient id="paint29_linear" x1="467" y1="259.654" x2="432.47" y2="259.654" gradientUnits="userSpaceOnUse"><stop stop-color="#4F3EFF"/><stop offset="1" stop-color="#A160FE"/></linearGradient><linearGradient id="paint30_linear" x1="219.528" y1="372.409" x2="207.533" y2="362.011" gradientUnits="userSpaceOnUse"><stop stop-color="#1C53A4"/><stop offset="1" stop-color="#00B5EB"/></linearGradient><linearGradient id="paint31_linear" x1="219.176" y1="374.533" x2="207.796" y2="385.115" gradientUnits="userSpaceOnUse"><stop stop-color="#1C53A4"/><stop offset="1" stop-color="#00B5EB"/></linearGradient><linearGradient id="paint32_linear" x1="273.043" y1="373.544" x2="300.218" y2="373.544" gradientUnits="userSpaceOnUse"><stop stop-color="#2355F6"/><stop offset="1" stop-color="#7889F7"/></linearGradient><filter id="filter0_d" x="82" y="82" width="498" height="400" filterUnits="userSpaceOnUse" color-interpolation-filters="sRGB"><feFlood flood-opacity="0" result="BackgroundImageFix"/><feColorMatrix in="SourceAlpha" type="matrix" values="0 0 0 0 0 0 0 0 0 0 0 0 0 0 0 0 0 0 127 0" result="hardAlpha"/><feOffset dy="4"/><feGaussianBlur stdDeviation="12.5"/><feComposite in2="hardAlpha" operator="out"/><feColorMatrix type="matrix" values="0 0 0 0 0 0 0 0 0 0 0 0 0 0 0 0 0 0 0.1 0"/><feBlend mode="normal" in2="BackgroundImageFix" result="effect1_dropShadow"/><feBlend mode="normal" in="SourceGraphic" in2="effect1_dropShadow" result="shape"/></filter></defs></svg>